<?xml version="1.0" encoding="UTF-8" standalone="no"?>
<!-- Created with Inkscape (http://www.inkscape.org/) -->

<svg
   width="646"
   height="220"
   viewBox="0 0 646 220"
   version="1.1"
   id="svg1"
   xmlns="http://www.w3.org/2000/svg"
   xmlns:svg="http://www.w3.org/2000/svg">
  <defs
     id="defs1" />
  <g
     id="layer1">
    <rect
       style="fill:#002b3d;stroke-width:20;paint-order:stroke fill markers;fill-opacity:1"
       id="rect1"
       width="646"
       height="220"
       x="0"
       y="0" />
    <g
       id="g1"
       transform="matrix(0.64184984,0,0,0.64184984,115.48236,39.252092)">
      <path
         d="m 141.5464,99.24173 v -8.31786 h 11.14593 v 4.90754 l 2.7449,2.74489 h 17.21797 l 2.82807,-2.82807 v -9.64872 l -2.74489,-2.74489 h -22.04233 l -8.98329,-8.98329 V 58.98329 L 150.69605,50 h 26.28444 l 8.98328,8.98329 v 8.40104 h -11.14593 v -4.99072 l -2.74489,-2.74489 h -16.46936 l -2.7449,2.74489 v 8.5674 l 2.7449,2.74489 h 22.04232 l 8.98329,8.98329 v 16.38618 l -9.14964,9.14965 H 150.52969 Z M 195.77878,50 h 42.08837 v 9.56554 h -30.77608 v 14.72261 h 28.3639 v 9.39918 h -28.3639 v 14.97215 h 30.77608 v 9.56554 h -42.08837 z m 49.57435,48.65948 V 59.56554 L 254.91867,50 h 28.44708 l 9.39918,9.39918 v 8.90011 h -11.31228 v -4.74118 l -3.9094,-3.90939 h -16.63572 l -4.24211,4.24211 v 30.44336 l 4.24211,4.24211 h 16.63572 l 3.9094,-3.90939 v -4.74118 h 11.31228 v 8.90011 l -9.39918,9.39918 h -28.44708 z m 101.06191,-9.73189 v 19.29743 h -11.31229 v -16.7189 l -4.99072,-5.57296 H 311.9791 v 22.29186 H 300.66681 V 50 h 36.5154 l 8.90011,8.98329 v 17.63386 l -5.65614,5.73933 z M 311.9791,76.61715 h 20.04604 l 2.91125,-2.91125 V 62.39361 l -2.91125,-2.91125 H 311.9791 Z M 356.8123,50 h 42.08837 v 9.56554 h -30.77608 v 14.72261 h 28.3639 v 9.39918 h -28.3639 v 14.97215 h 30.77608 v 9.56554 H 356.8123 Z m 63.63153,9.56554 H 403.0595 V 50 h 46.08094 v 9.56554 h -17.38433 v 48.65948 h -11.31228 z"
         id="text1"
         style="font-size:83.1786px;font-family:'Chakra Petch';-inkscape-font-specification:'Chakra Petch, Normal';letter-spacing:0px;fill:#ffffff;stroke-width:10.5702;paint-order:stroke fill markers"
         aria-label="SECRET" />
      <path
         d="m 77,112.22501 h 10.4805 l 17.30115,37.59672 h 0.16636 l 17.38432,-37.59672 h 10.48051 v 58.22502 h -10.8964 v -35.43409 h -0.16636 l -13.39175,27.28258 h -6.987 L 88.06275,135.01594 H 87.8964 v 35.43409 H 77 Z m 66.62595,0 h 42.08837 v 9.56554 h -30.77609 v 14.72261 h 28.36391 v 9.39918 h -28.36391 v 14.97215 h 30.77609 v 9.56554 h -42.08837 z m 49.15846,49.24173 v -8.31786 h 11.14593 v 4.90754 l 2.7449,2.74489 h 17.21796 l 2.82808,-2.82807 v -9.64872 l -2.7449,-2.74489 h -22.04232 l -8.98329,-8.98329 V 121.2083 l 8.98329,-8.98329 h 26.28443 l 8.98329,8.98329 v 8.40104 h -11.14593 v -4.99072 l -2.7449,-2.74489 h -16.46936 l -2.74489,2.74489 v 8.56739 l 2.74489,2.7449 h 22.04233 l 8.98329,8.98329 v 16.38618 l -9.14965,9.14965 H 201.7677 Z m 52.98469,0 v -8.31786 h 11.14594 v 4.90754 l 2.74489,2.74489 h 17.21797 l 2.82807,-2.82807 v -9.64872 l -2.74489,-2.74489 h -22.04233 l -8.98329,-8.98329 V 121.2083 l 8.98329,-8.98329 h 26.28444 l 8.98329,8.98329 v 8.40104 h -11.14594 v -4.99072 l -2.74489,-2.74489 h -16.46936 l -2.7449,2.74489 v 8.56739 l 2.7449,2.7449 h 22.04233 l 8.98328,8.98329 v 16.38618 l -9.14964,9.14965 h -26.94987 z m 68.87178,-49.24173 h 10.31415 l 21.29372,58.22502 H 334.7701 l -4.74118,-12.89269 h -20.46193 l -4.74118,12.89269 h -11.47865 z m 12.89268,36.01633 -7.73561,-22.12551 h -0.16635 l -7.48608,22.12551 z m 22.45811,12.64315 v -39.09394 l 9.56554,-9.56554 h 28.94615 l 9.39918,9.39918 v 8.90011 h -11.31229 v -4.74118 l -3.90939,-3.90939 h -17.13479 l -4.24211,4.2421 v 30.44337 l 4.24211,4.24211 h 17.30114 l 4.07576,-4.07575 v -9.06647 h -12.47679 v -9.64872 h 23.45636 v 22.87412 l -9.56554,9.56554 h -28.77979 z m 57.06039,-48.65948 h 42.08837 v 9.56554 h -30.77608 v 14.72261 h 28.3639 v 9.39918 h -28.3639 v 14.97215 h 30.77608 v 9.56554 h -42.08837 z"
         id="text2"
         style="font-size:83.1786px;font-family:'Chakra Petch';-inkscape-font-specification:'Chakra Petch, Normal';letter-spacing:0px;fill:#ffffff;stroke-width:20;paint-order:stroke fill markers"
         aria-label="MESSAGE" />
      <path
         d="m 497.36717,83.87657 v 11.29219 h 38.02972 V 83.87657 c 0,-10.39821 -8.50915,-18.82031 -19.01486,-18.82031 -10.50571,0 -19.01486,8.4221 -19.01486,18.82031 z M 482.15529,95.16876 V 83.87657 C 482.15529,65.17388 497.48602,50 516.38203,50 c 18.89601,0 34.22674,15.17388 34.22674,33.87657 v 11.29219 h 3.80298 c 8.3903,0 15.21188,6.75179 15.21188,15.05625 v 45.16876 c 0,8.30447 -6.82158,15.05626 -15.21188,15.05626 h -76.05944 c -8.3903,0 -15.21188,-6.75179 -15.21188,-15.05626 v -45.16876 c 0,-8.30446 6.82158,-15.05625 15.21188,-15.05625 z"
         id="path1"
         style="fill:#ffffff;stroke-width:0.236467" />
    </g>
  </g>
</svg>
