<?xml version="1.0" encoding="UTF-8" standalone="no"?>
<!-- Created with Inkscape (http://www.inkscape.org/) -->

<svg
   width="492.62363"
   height="120.45003"
   viewBox="0 0 492.62363 120.45003"
   version="1.1"
   id="svg1"
   inkscape:version="1.3.1 (9b9bdc1480, 2023-11-25, custom)"
   sodipodi:docname="logo.svg"
   xmlns:inkscape="http://www.inkscape.org/namespaces/inkscape"
   xmlns:sodipodi="http://sodipodi.sourceforge.net/DTD/sodipodi-0.dtd"
   xmlns="http://www.w3.org/2000/svg"
   xmlns:svg="http://www.w3.org/2000/svg">
  <sodipodi:namedview
     id="namedview1"
     pagecolor="#ffffff"
     bordercolor="#000000"
     borderopacity="0.25"
     inkscape:showpageshadow="2"
     inkscape:pageopacity="0.0"
     inkscape:pagecheckerboard="0"
     inkscape:deskcolor="#d1d1d1"
     inkscape:document-units="px"
     inkscape:zoom="1.6073171"
     inkscape:cx="246.37329"
     inkscape:cy="60.349014"
     inkscape:window-width="1850"
     inkscape:window-height="1016"
     inkscape:window-x="70"
     inkscape:window-y="27"
     inkscape:window-maximized="1"
     inkscape:current-layer="layer1" />
  <defs
     id="defs1" />
  <g
     inkscape:label="Layer 1"
     inkscape:groupmode="layer"
     id="layer1"
     transform="translate(-163.68818,-170.77498)">
    <path
       d="m 228.23458,220.01671 v -8.31786 h 11.14593 v 4.90754 l 2.7449,2.74489 h 17.21797 l 2.82807,-2.82807 v -9.64872 l -2.74489,-2.74489 h -22.04233 l -8.98329,-8.98329 v -15.38804 l 8.98329,-8.98329 h 26.28444 l 8.98328,8.98329 v 8.40104 h -11.14593 v -4.99072 l -2.74489,-2.74489 h -16.46936 l -2.7449,2.74489 v 8.5674 l 2.7449,2.74489 h 22.04232 l 8.98329,8.98329 v 16.38618 L 264.16774,229 h -26.94987 z m 54.23238,-49.24173 h 42.08837 v 9.56554 h -30.77608 v 14.72261 h 28.3639 v 9.39918 h -28.3639 v 14.97215 h 30.77608 V 229 h -42.08837 z m 49.57435,48.65948 v -39.09394 l 9.56554,-9.56554 h 28.44708 l 9.39918,9.39918 v 8.90011 h -11.31228 v -4.74118 l -3.9094,-3.90939 h -16.63572 l -4.24211,4.24211 v 30.44336 l 4.24211,4.24211 h 16.63572 l 3.9094,-3.90939 v -4.74118 h 11.31228 v 8.90011 L 370.05393,229 h -28.44708 z m 101.06191,-9.73189 V 229 h -11.31229 v -16.7189 l -4.99072,-5.57296 H 398.66728 V 229 h -11.31229 v -58.22502 h 36.5154 l 8.90011,8.98329 v 17.63386 l -5.65614,5.73933 z m -34.43594,-12.31044 h 20.04604 l 2.91125,-2.91125 v -11.31229 l -2.91125,-2.91125 h -20.04604 z m 44.8332,-26.61715 h 42.08837 v 9.56554 h -30.77608 v 14.72261 h 28.3639 v 9.39918 h -28.3639 v 14.97215 h 30.77608 V 229 h -42.08837 z m 63.63153,9.56554 h -17.38433 v -9.56554 h 46.08094 v 9.56554 H 518.44429 V 229 h -11.31228 z"
       id="text1"
       style="font-size:83.1786px;font-family:'Chakra Petch';-inkscape-font-specification:'Chakra Petch, Normal';letter-spacing:0px;fill:#ffffff;stroke-width:10.5702;paint-order:stroke fill markers"
       aria-label="SECRET" />
    <path
       d="m 163.68818,232.99999 h 10.4805 l 17.30115,37.59672 h 0.16636 l 17.38432,-37.59672 h 10.48051 v 58.22502 h -10.8964 v -35.43409 h -0.16636 l -13.39175,27.28258 h -6.987 l -13.30858,-27.28258 h -0.16635 v 35.43409 h -10.8964 z m 66.62595,0 h 42.08837 v 9.56554 h -30.77609 v 14.72261 h 28.36391 v 9.39918 h -28.36391 v 14.97215 h 30.77609 v 9.56554 h -42.08837 z m 49.15846,49.24173 v -8.31786 h 11.14593 v 4.90754 l 2.7449,2.74489 h 17.21796 l 2.82808,-2.82807 v -9.64872 l -2.7449,-2.74489 h -22.04232 l -8.98329,-8.98329 v -15.38804 l 8.98329,-8.98329 h 26.28443 l 8.98329,8.98329 v 8.40104 h -11.14593 v -4.99072 l -2.7449,-2.74489 h -16.46936 l -2.74489,2.74489 v 8.56739 l 2.74489,2.7449 h 22.04233 l 8.98329,8.98329 v 16.38618 l -9.14965,9.14965 h -26.94986 z m 52.98469,0 v -8.31786 h 11.14594 v 4.90754 l 2.74489,2.74489 h 17.21797 l 2.82807,-2.82807 v -9.64872 l -2.74489,-2.74489 h -22.04233 l -8.98329,-8.98329 v -15.38804 l 8.98329,-8.98329 h 26.28444 l 8.98329,8.98329 v 8.40104 h -11.14594 v -4.99072 l -2.74489,-2.74489 h -16.46936 l -2.7449,2.74489 v 8.56739 l 2.7449,2.7449 h 22.04233 l 8.98328,8.98329 v 16.38618 l -9.14964,9.14965 h -26.94987 z m 68.87178,-49.24173 h 10.31415 l 21.29372,58.22502 h -11.47865 l -4.74118,-12.89269 h -20.46193 l -4.74118,12.89269 h -11.47865 z m 12.89268,36.01633 -7.73561,-22.12551 h -0.16635 l -7.48608,22.12551 z m 22.45811,12.64315 v -39.09394 l 9.56554,-9.56554 h 28.94615 l 9.39918,9.39918 v 8.90011 h -11.31229 v -4.74118 l -3.90939,-3.90939 h -17.13479 l -4.24211,4.2421 v 30.44337 l 4.24211,4.24211 h 17.30114 l 4.07576,-4.07575 v -9.06647 h -12.47679 v -9.64872 h 23.45636 v 22.87412 l -9.56554,9.56554 h -28.77979 z m 57.06039,-48.65948 h 42.08837 v 9.56554 h -30.77608 v 14.72261 h 28.3639 v 9.39918 h -28.3639 v 14.97215 h 30.77608 v 9.56554 h -42.08837 z"
       id="text2"
       style="font-size:83.1786px;font-family:'Chakra Petch';-inkscape-font-specification:'Chakra Petch, Normal';letter-spacing:0px;fill:#ffffff;stroke-width:20;paint-order:stroke fill markers"
       aria-label="MESSAGE" />
    <path
       d="m 584.05535,204.65155 v 11.29219 h 38.02972 v -11.29219 c 0,-10.39821 -8.50915,-18.82031 -19.01486,-18.82031 -10.50571,0 -19.01486,8.4221 -19.01486,18.82031 z m -15.21188,11.29219 v -11.29219 c 0,-18.70269 15.33073,-33.87657 34.22674,-33.87657 18.89601,0 34.22674,15.17388 34.22674,33.87657 v 11.29219 h 3.80298 c 8.3903,0 15.21188,6.75179 15.21188,15.05625 v 45.16876 c 0,8.30447 -6.82158,15.05626 -15.21188,15.05626 h -76.05944 c -8.3903,0 -15.21188,-6.75179 -15.21188,-15.05626 v -45.16876 c 0,-8.30446 6.82158,-15.05625 15.21188,-15.05625 z"
       id="path1"
       style="stroke-width:0.236467;fill:#ffffff" />
  </g>
</svg>
